<mxfile host="Electron" agent="Mozilla/5.0 (Windows NT 10.0; Win64; x64) AppleWebKit/537.36 (KHTML, like Gecko) draw.io/26.0.16 Chrome/132.0.6834.196 Electron/34.2.0 Safari/537.36" version="26.0.16">
  <diagram name="Sayfa -1" id="YZbvoHP_4Ejd6dFh3Vvs">
    <mxGraphModel dx="1235" dy="731" grid="1" gridSize="10" guides="1" tooltips="1" connect="1" arrows="1" fold="1" page="1" pageScale="1" pageWidth="1169" pageHeight="1654" math="0" shadow="0">
      <root>
        <mxCell id="0" />
        <mxCell id="1" parent="0" />
        <mxCell id="lTKTrnrhQplXegWLgwpe-1" value="ŞİRKET" style="rounded=0;whiteSpace=wrap;html=1;" vertex="1" parent="1">
          <mxGeometry x="360" y="60" width="90" height="50" as="geometry" />
        </mxCell>
        <mxCell id="lTKTrnrhQplXegWLgwpe-2" value="" style="endArrow=none;html=1;rounded=0;" edge="1" parent="1">
          <mxGeometry width="50" height="50" relative="1" as="geometry">
            <mxPoint x="280" y="130" as="sourcePoint" />
            <mxPoint x="360" y="100" as="targetPoint" />
          </mxGeometry>
        </mxCell>
        <mxCell id="lTKTrnrhQplXegWLgwpe-3" value="" style="endArrow=none;html=1;rounded=0;" edge="1" parent="1">
          <mxGeometry width="50" height="50" relative="1" as="geometry">
            <mxPoint x="570" y="140" as="sourcePoint" />
            <mxPoint x="450" y="90" as="targetPoint" />
          </mxGeometry>
        </mxCell>
        <mxCell id="lTKTrnrhQplXegWLgwpe-4" value="ŞUBE" style="ellipse;whiteSpace=wrap;html=1;" vertex="1" parent="1">
          <mxGeometry x="200" y="120" width="100" height="50" as="geometry" />
        </mxCell>
        <mxCell id="lTKTrnrhQplXegWLgwpe-5" value="ŞUBE" style="ellipse;whiteSpace=wrap;html=1;" vertex="1" parent="1">
          <mxGeometry x="540" y="130" width="100" height="50" as="geometry" />
        </mxCell>
        <mxCell id="lTKTrnrhQplXegWLgwpe-6" value="" style="endArrow=none;html=1;rounded=0;exitX=0;exitY=0;exitDx=0;exitDy=0;" edge="1" parent="1" source="lTKTrnrhQplXegWLgwpe-4">
          <mxGeometry width="50" height="50" relative="1" as="geometry">
            <mxPoint x="180" y="150" as="sourcePoint" />
            <mxPoint x="150" y="100" as="targetPoint" />
            <Array as="points" />
          </mxGeometry>
        </mxCell>
        <mxCell id="lTKTrnrhQplXegWLgwpe-7" value="" style="endArrow=none;html=1;rounded=0;entryX=0;entryY=0.5;entryDx=0;entryDy=0;" edge="1" parent="1" target="lTKTrnrhQplXegWLgwpe-4">
          <mxGeometry width="50" height="50" relative="1" as="geometry">
            <mxPoint x="130" y="140" as="sourcePoint" />
            <mxPoint x="170" y="140" as="targetPoint" />
          </mxGeometry>
        </mxCell>
        <mxCell id="lTKTrnrhQplXegWLgwpe-8" value="" style="endArrow=none;html=1;rounded=0;" edge="1" parent="1">
          <mxGeometry width="50" height="50" relative="1" as="geometry">
            <mxPoint x="130" y="180" as="sourcePoint" />
            <mxPoint x="200" y="150" as="targetPoint" />
          </mxGeometry>
        </mxCell>
        <mxCell id="lTKTrnrhQplXegWLgwpe-9" value="" style="endArrow=none;html=1;rounded=0;entryX=0;entryY=1;entryDx=0;entryDy=0;" edge="1" parent="1" source="lTKTrnrhQplXegWLgwpe-18" target="lTKTrnrhQplXegWLgwpe-4">
          <mxGeometry width="50" height="50" relative="1" as="geometry">
            <mxPoint x="80" y="290" as="sourcePoint" />
            <mxPoint x="170" y="190" as="targetPoint" />
          </mxGeometry>
        </mxCell>
        <mxCell id="lTKTrnrhQplXegWLgwpe-10" value="" style="endArrow=none;html=1;rounded=0;entryX=0.5;entryY=1;entryDx=0;entryDy=0;" edge="1" parent="1" source="lTKTrnrhQplXegWLgwpe-20" target="lTKTrnrhQplXegWLgwpe-4">
          <mxGeometry width="50" height="50" relative="1" as="geometry">
            <mxPoint x="230" y="300" as="sourcePoint" />
            <mxPoint x="230" y="190" as="targetPoint" />
          </mxGeometry>
        </mxCell>
        <mxCell id="lTKTrnrhQplXegWLgwpe-11" value="119" style="ellipse;whiteSpace=wrap;html=1;" vertex="1" parent="1">
          <mxGeometry x="80" y="80" width="100" height="30" as="geometry" />
        </mxCell>
        <mxCell id="lTKTrnrhQplXegWLgwpe-13" value="YEŞİLYURT" style="ellipse;whiteSpace=wrap;html=1;" vertex="1" parent="1">
          <mxGeometry x="40" y="170" width="100" height="30" as="geometry" />
        </mxCell>
        <mxCell id="lTKTrnrhQplXegWLgwpe-14" value="BMW" style="ellipse;whiteSpace=wrap;html=1;" vertex="1" parent="1">
          <mxGeometry x="40" y="120" width="100" height="30" as="geometry" />
        </mxCell>
        <mxCell id="lTKTrnrhQplXegWLgwpe-17" value="" style="endArrow=none;html=1;rounded=0;" edge="1" parent="1">
          <mxGeometry width="50" height="50" relative="1" as="geometry">
            <mxPoint x="120" y="100" as="sourcePoint" />
            <mxPoint x="140" y="100" as="targetPoint" />
          </mxGeometry>
        </mxCell>
        <mxCell id="lTKTrnrhQplXegWLgwpe-19" value="" style="endArrow=none;html=1;rounded=0;entryX=0;entryY=1;entryDx=0;entryDy=0;exitX=0.5;exitY=0;exitDx=0;exitDy=0;" edge="1" parent="1" source="lTKTrnrhQplXegWLgwpe-22" target="lTKTrnrhQplXegWLgwpe-18">
          <mxGeometry width="50" height="50" relative="1" as="geometry">
            <mxPoint x="60" y="340" as="sourcePoint" />
            <mxPoint x="175" y="183" as="targetPoint" />
          </mxGeometry>
        </mxCell>
        <mxCell id="lTKTrnrhQplXegWLgwpe-18" value="ÇALIŞIR" style="rhombus;whiteSpace=wrap;html=1;" vertex="1" parent="1">
          <mxGeometry x="170" y="190" width="80" height="60" as="geometry" />
        </mxCell>
        <mxCell id="lTKTrnrhQplXegWLgwpe-21" value="" style="endArrow=none;html=1;rounded=0;" edge="1" parent="1" target="lTKTrnrhQplXegWLgwpe-20">
          <mxGeometry width="50" height="50" relative="1" as="geometry">
            <mxPoint x="360" y="330" as="sourcePoint" />
            <mxPoint x="230" y="190" as="targetPoint" />
          </mxGeometry>
        </mxCell>
        <mxCell id="lTKTrnrhQplXegWLgwpe-20" value="ÇALIŞIR" style="rhombus;whiteSpace=wrap;html=1;" vertex="1" parent="1">
          <mxGeometry x="310" y="190" width="80" height="60" as="geometry" />
        </mxCell>
        <mxCell id="lTKTrnrhQplXegWLgwpe-22" value="ÇALIŞAN" style="rounded=0;whiteSpace=wrap;html=1;" vertex="1" parent="1">
          <mxGeometry x="110" y="300" width="100" height="40" as="geometry" />
        </mxCell>
        <mxCell id="lTKTrnrhQplXegWLgwpe-23" value="" style="endArrow=none;html=1;rounded=0;" edge="1" parent="1">
          <mxGeometry width="50" height="50" relative="1" as="geometry">
            <mxPoint x="130" y="300" as="sourcePoint" />
            <mxPoint x="100" y="270" as="targetPoint" />
          </mxGeometry>
        </mxCell>
        <mxCell id="lTKTrnrhQplXegWLgwpe-24" value="&lt;span style=&quot;color: rgba(0, 0, 0, 0); font-family: monospace; font-size: 0px; text-align: start; background-color: rgb(251, 251, 251);&quot;&gt;%3CmxGraphModel%3E%3Croot%3E%3CmxCell%20id%3D%220%22%2F%3E%3CmxCell%20id%3D%221%22%20parent%3D%220%22%2F%3E%3CmxCell%20id%3D%222%22%20value%3D%22%22%20style%3D%22endArrow%3Dnone%3Bhtml%3D1%3Brounded%3D0%3B%22%20edge%3D%221%22%20parent%3D%221%22%3E%3CmxGeometry%20width%3D%2250%22%20height%3D%2250%22%20relative%3D%221%22%20as%3D%22geometry%22%3E%3CmxPoint%20x%3D%2280%22%20y%3D%22370%22%20as%3D%22sourcePoint%22%2F%3E%3CmxPoint%20x%3D%22110%22%20y%3D%22340%22%20as%3D%22targetPoint%22%2F%3E%3C%2FmxGeometry%3E%3C%2FmxCell%3E%3C%2Froot%3E%3C%2FmxGraphModel%3E&lt;/span&gt;&lt;span style=&quot;color: rgba(0, 0, 0, 0); font-family: monospace; font-size: 0px; text-align: start; background-color: rgb(251, 251, 251);&quot;&gt;%3CmxGraphModel%3E%3Croot%3E%3CmxCell%20id%3D%220%22%2F%3E%3CmxCell%20id%3D%221%22%20parent%3D%220%22%2F%3E%3CmxCell%20id%3D%222%22%20value%3D%22%22%20style%3D%22endArrow%3Dnone%3Bhtml%3D1%3Brounded%3D0%3B%22%20edge%3D%221%22%20parent%3D%221%22%3E%3CmxGeometry%20width%3D%2250%22%20height%3D%2250%22%20relative%3D%221%22%20as%3D%22geometry%22%3E%3CmxPoint%20x%3D%2280%22%20y%3D%22370%22%20as%3D%22sourcePoint%22%2F%3E%3CmxPoint%20x%3D%22110%22%20y%3D%22340%22%20as%3D%22targetPoint%22%2F%3E%3C%2FmxGeometry%3E%3C%2FmxCell%3E%3C%2Froot%3E%3C%2FmxGraphModel%3E&lt;/span&gt;" style="endArrow=none;html=1;rounded=0;" edge="1" parent="1">
          <mxGeometry width="50" height="50" relative="1" as="geometry">
            <mxPoint x="70" y="300" as="sourcePoint" />
            <mxPoint x="110" y="310" as="targetPoint" />
          </mxGeometry>
        </mxCell>
        <mxCell id="lTKTrnrhQplXegWLgwpe-25" value="&lt;span style=&quot;color: rgba(0, 0, 0, 0); font-family: monospace; font-size: 0px; text-align: start; background-color: rgb(251, 251, 251);&quot;&gt;%3CmxGraphModel%3E%3Croot%3E%3CmxCell%20id%3D%220%22%2F%3E%3CmxCell%20id%3D%221%22%20parent%3D%220%22%2F%3E%3CmxCell%20id%3D%222%22%20value%3D%22%22%20style%3D%22endArrow%3Dnone%3Bhtml%3D1%3Brounded%3D0%3B%22%20edge%3D%221%22%20parent%3D%221%22%3E%3CmxGeometry%20width%3D%2250%22%20height%3D%2250%22%20relative%3D%221%22%20as%3D%22geometry%22%3E%3CmxPoint%20x%3D%2280%22%20y%3D%22370%22%20as%3D%22sourcePoint%22%2F%3E%3CmxPoint%20x%3D%22110%22%20y%3D%22340%22%20as%3D%22targetPoint%22%2F%3E%3C%2FmxGeometry%3E%3C%2FmxCell%3E%3C%2Froot%3E%3C%2FmxGraphModel%3E&lt;/span&gt;&lt;span style=&quot;color: rgba(0, 0, 0, 0); font-family: monospace; font-size: 0px; text-align: start; background-color: rgb(251, 251, 251);&quot;&gt;%3CmxGraphModel%3E%3Croot%3E%3CmxCell%20id%3D%220%22%2F%3E%3CmxCell%20id%3D%221%22%20parent%3D%220%22%2F%3E%3CmxCell%20id%3D%222%22%20value%3D%22%22%20style%3D%22endArrow%3Dnone%3Bhtml%3D1%3Brounded%3D0%3B%22%20edge%3D%221%22%20parent%3D%221%22%3E%3CmxGeometry%20width%3D%2250%22%20height%3D%2250%22%20relative%3D%221%22%20as%3D%22geometry%22%3E%3CmxPoint%20x%3D%2280%22%20y%3D%22370%22%20as%3D%22sourcePoint%22%2F%3E%3CmxPoint%20x%3D%22110%22%20y%3D%22340%22%20as%3D%22targetPoint%22%2F%3E%3C%2FmxGeometry%3E%3C%2FmxCell%3E%3C%2Froot%3E%3C%2FmxGraphModel%3E&lt;/span&gt;" style="endArrow=none;html=1;rounded=0;" edge="1" parent="1">
          <mxGeometry width="50" height="50" relative="1" as="geometry">
            <mxPoint x="80" y="360" as="sourcePoint" />
            <mxPoint x="110" y="330" as="targetPoint" />
          </mxGeometry>
        </mxCell>
        <mxCell id="lTKTrnrhQplXegWLgwpe-26" value="&lt;span style=&quot;color: rgba(0, 0, 0, 0); font-family: monospace; font-size: 0px; text-align: start; background-color: rgb(251, 251, 251);&quot;&gt;%3CmxGraphModel%3E%3Croot%3E%3CmxCell%20id%3D%220%22%2F%3E%3CmxCell%20id%3D%221%22%20parent%3D%220%22%2F%3E%3CmxCell%20id%3D%222%22%20value%3D%22%22%20style%3D%22endArrow%3Dnone%3Bhtml%3D1%3Brounded%3D0%3B%22%20edge%3D%221%22%20parent%3D%221%22%3E%3CmxGeometry%20width%3D%2250%22%20height%3D%2250%22%20relative%3D%221%22%20as%3D%22geometry%22%3E%3CmxPoint%20x%3D%2280%22%20y%3D%22370%22%20as%3D%22sourcePoint%22%2F%3E%3CmxPoint%20x%3D%22110%22%20y%3D%22340%22%20as%3D%22targetPoint%22%2F%3E%3C%2FmxGeometry%3E%3C%2FmxCell%3E%3C%2Froot%3E%3C%2FmxGraphModel%3E&lt;/span&gt;&lt;span style=&quot;color: rgba(0, 0, 0, 0); font-family: monospace; font-size: 0px; text-align: start; background-color: rgb(251, 251, 251);&quot;&gt;%3CmxGraphModel%3E%3Croot%3E%3CmxCell%20id%3D%220%22%2F%3E%3CmxCell%20id%3D%221%22%20parent%3D%220%22%2F%3E%3CmxCell%20id%3D%222%22%20value%3D%22%22%20style%3D%22endArrow%3Dnone%3Bhtml%3D1%3Brounded%3D0%3B%22%20edge%3D%221%22%20parent%3D%221%22%3E%3CmxGeometry%20width%3D%2250%22%20height%3D%2250%22%20relative%3D%221%22%20as%3D%22geometry%22%3E%3CmxPoint%20x%3D%2280%22%20y%3D%22370%22%20as%3D%22sourcePoint%22%2F%3E%3CmxPoint%20x%3D%22110%22%20y%3D%22340%22%20as%3D%22targetPoint%22%2F%3E%3C%2FmxGeometry%3E%3C%2FmxCell%3E%3C%2Froot%3E%3C%2FmxGraphModel%3E&lt;/span&gt;" style="endArrow=none;html=1;rounded=0;" edge="1" parent="1">
          <mxGeometry width="50" height="50" relative="1" as="geometry">
            <mxPoint x="120" y="400" as="sourcePoint" />
            <mxPoint x="140" y="340" as="targetPoint" />
          </mxGeometry>
        </mxCell>
        <mxCell id="lTKTrnrhQplXegWLgwpe-27" value="&lt;span style=&quot;color: rgba(0, 0, 0, 0); font-family: monospace; font-size: 0px; text-align: start; background-color: rgb(251, 251, 251);&quot;&gt;%3CmxGraphModel%3E%3Croot%3E%3CmxCell%20id%3D%220%22%2F%3E%3CmxCell%20id%3D%221%22%20parent%3D%220%22%2F%3E%3CmxCell%20id%3D%222%22%20value%3D%22%22%20style%3D%22endArrow%3Dnone%3Bhtml%3D1%3Brounded%3D0%3B%22%20edge%3D%221%22%20parent%3D%221%22%3E%3CmxGeometry%20width%3D%2250%22%20height%3D%2250%22%20relative%3D%221%22%20as%3D%22geometry%22%3E%3CmxPoint%20x%3D%2280%22%20y%3D%22370%22%20as%3D%22sourcePoint%22%2F%3E%3CmxPoint%20x%3D%22110%22%20y%3D%22340%22%20as%3D%22targetPoint%22%2F%3E%3C%2FmxGeometry%3E%3C%2FmxCell%3E%3C%2Froot%3E%3C%2FmxGraphModel%3E&lt;/span&gt;&lt;span style=&quot;color: rgba(0, 0, 0, 0); font-family: monospace; font-size: 0px; text-align: start; background-color: rgb(251, 251, 251);&quot;&gt;%3CmxGraphModel%3E%3Croot%3E%3CmxCell%20id%3D%220%22%2F%3E%3CmxCell%20id%3D%221%22%20parent%3D%220%22%2F%3E%3CmxCell%20id%3D%222%22%20value%3D%22%22%20style%3D%22endArrow%3Dnone%3Bhtml%3D1%3Brounded%3D0%3B%22%20edge%3D%221%22%20parent%3D%221%22%3E%3CmxGeometry%20width%3D%2250%22%20height%3D%2250%22%20relative%3D%221%22%20as%3D%22geometry%22%3E%3CmxPoint%20x%3D%2280%22%20y%3D%22370%22%20as%3D%22sourcePoint%22%2F%3E%3CmxPoint%20x%3D%22110%22%20y%3D%22340%22%20as%3D%22targetPoint%22%2F%3E%3C%2FmxGeometry%3E%3C%2FmxCell%3E%3C%2Froot%3E%3C%2FmxGraphModel%3E&lt;/span&gt;" style="endArrow=none;html=1;rounded=0;" edge="1" parent="1">
          <mxGeometry x="0.5" width="50" height="50" relative="1" as="geometry">
            <mxPoint x="180" y="420" as="sourcePoint" />
            <mxPoint x="180" y="340" as="targetPoint" />
            <mxPoint as="offset" />
          </mxGeometry>
        </mxCell>
        <mxCell id="lTKTrnrhQplXegWLgwpe-28" value="&lt;span style=&quot;color: rgba(0, 0, 0, 0); font-family: monospace; font-size: 0px; text-align: start; background-color: rgb(251, 251, 251);&quot;&gt;%3CmxGraphModel%3E%3Croot%3E%3CmxCell%20id%3D%220%22%2F%3E%3CmxCell%20id%3D%221%22%20parent%3D%220%22%2F%3E%3CmxCell%20id%3D%222%22%20value%3D%22%22%20style%3D%22endArrow%3Dnone%3Bhtml%3D1%3Brounded%3D0%3B%22%20edge%3D%221%22%20parent%3D%221%22%3E%3CmxGeometry%20width%3D%2250%22%20height%3D%2250%22%20relative%3D%221%22%20as%3D%22geometry%22%3E%3CmxPoint%20x%3D%2280%22%20y%3D%22370%22%20as%3D%22sourcePoint%22%2F%3E%3CmxPoint%20x%3D%22110%22%20y%3D%22340%22%20as%3D%22targetPoint%22%2F%3E%3C%2FmxGeometry%3E%3C%2FmxCell%3E%3C%2Froot%3E%3C%2FmxGraphModel%3E&lt;/span&gt;&lt;span style=&quot;color: rgba(0, 0, 0, 0); font-family: monospace; font-size: 0px; text-align: start; background-color: rgb(251, 251, 251);&quot;&gt;%3CmxGraphModel%3E%3Croot%3E%3CmxCell%20id%3D%220%22%2F%3E%3CmxCell%20id%3D%221%22%20parent%3D%220%22%2F%3E%3CmxCell%20id%3D%222%22%20value%3D%22%22%20style%3D%22endArrow%3Dnone%3Bhtml%3D1%3Brounded%3D0%3B%22%20edge%3D%221%22%20parent%3D%221%22%3E%3CmxGeometry%20width%3D%2250%22%20height%3D%2250%22%20relative%3D%221%22%20as%3D%22geometry%22%3E%3CmxPoint%20x%3D%2280%22%20y%3D%22370%22%20as%3D%22sourcePoint%22%2F%3E%3CmxPoint%20x%3D%22110%22%20y%3D%22340%22%20as%3D%22targetPoint%22%2F%3E%3C%2FmxGeometry%3E%3C%2FmxCell%3E%3C%2Froot%3E%3C%2FmxGraphModel%3E&lt;/span&gt;" style="endArrow=none;html=1;rounded=0;exitX=1;exitY=1;exitDx=0;exitDy=0;" edge="1" parent="1" source="lTKTrnrhQplXegWLgwpe-22">
          <mxGeometry width="50" height="50" relative="1" as="geometry">
            <mxPoint x="210" y="370" as="sourcePoint" />
            <mxPoint x="240" y="400" as="targetPoint" />
          </mxGeometry>
        </mxCell>
        <mxCell id="lTKTrnrhQplXegWLgwpe-29" value="&lt;span style=&quot;color: rgba(0, 0, 0, 0); font-family: monospace; font-size: 0px; text-align: start; background-color: rgb(251, 251, 251);&quot;&gt;%3CmxGraphModel%3E%3Croot%3E%3CmxCell%20id%3D%220%22%2F%3E%3CmxCell%20id%3D%221%22%20parent%3D%220%22%2F%3E%3CmxCell%20id%3D%222%22%20value%3D%22%22%20style%3D%22endArrow%3Dnone%3Bhtml%3D1%3Brounded%3D0%3B%22%20edge%3D%221%22%20parent%3D%221%22%3E%3CmxGeometry%20width%3D%2250%22%20height%3D%2250%22%20relative%3D%221%22%20as%3D%22geometry%22%3E%3CmxPoint%20x%3D%2280%22%20y%3D%22370%22%20as%3D%22sourcePoint%22%2F%3E%3CmxPoint%20x%3D%22110%22%20y%3D%22340%22%20as%3D%22targetPoint%22%2F%3E%3C%2FmxGeometry%3E%3C%2FmxCell%3E%3C%2Froot%3E%3C%2FmxGraphModel%3E&lt;/span&gt;&lt;span style=&quot;color: rgba(0, 0, 0, 0); font-family: monospace; font-size: 0px; text-align: start; background-color: rgb(251, 251, 251);&quot;&gt;%3CmxGraphModel%3E%3Croot%3E%3CmxCell%20id%3D%220%22%2F%3E%3CmxCell%20id%3D%221%22%20parent%3D%220%22%2F%3E%3CmxCell%20id%3D%222%22%20value%3D%22%22%20style%3D%22endArrow%3Dnone%3Bhtml%3D1%3Brounded%3D0%3B%22%20edge%3D%221%22%20parent%3D%221%22%3E%3CmxGeometry%20width%3D%2250%22%20height%3D%2250%22%20relative%3D%221%22%20as%3D%22geometry%22%3E%3CmxPoint%20x%3D%2280%22%20y%3D%22370%22%20as%3D%22sourcePoint%22%2F%3E%3CmxPoint%20x%3D%22110%22%20y%3D%22340%22%20as%3D%22targetPoint%22%2F%3E%3C%2FmxGeometry%3E%3C%2FmxCell%3E%3C%2Froot%3E%3C%2FmxGraphModel%3E&lt;/span&gt;" style="endArrow=none;html=1;rounded=0;" edge="1" parent="1">
          <mxGeometry width="50" height="50" relative="1" as="geometry">
            <mxPoint x="210" y="320" as="sourcePoint" />
            <mxPoint x="240" y="290" as="targetPoint" />
            <Array as="points">
              <mxPoint x="230" y="300" />
            </Array>
          </mxGeometry>
        </mxCell>
        <mxCell id="lTKTrnrhQplXegWLgwpe-30" value="0543.." style="ellipse;whiteSpace=wrap;html=1;" vertex="1" parent="1">
          <mxGeometry x="40" y="250" width="70" height="30" as="geometry" />
        </mxCell>
        <mxCell id="lTKTrnrhQplXegWLgwpe-33" value="YÖNETİCİ" style="ellipse;whiteSpace=wrap;html=1;" vertex="1" parent="1">
          <mxGeometry x="150" y="410" width="70" height="30" as="geometry" />
        </mxCell>
        <mxCell id="lTKTrnrhQplXegWLgwpe-34" value="KIZ YURDU" style="ellipse;whiteSpace=wrap;html=1;" vertex="1" parent="1">
          <mxGeometry x="55" y="390" width="70" height="30" as="geometry" />
        </mxCell>
        <mxCell id="lTKTrnrhQplXegWLgwpe-35" value="YILMAZ" style="ellipse;whiteSpace=wrap;html=1;" vertex="1" parent="1">
          <mxGeometry x="10" y="350" width="70" height="30" as="geometry" />
        </mxCell>
        <mxCell id="lTKTrnrhQplXegWLgwpe-36" value="CANAN" style="ellipse;whiteSpace=wrap;html=1;" vertex="1" parent="1">
          <mxGeometry x="10" y="280" width="70" height="30" as="geometry" />
        </mxCell>
        <mxCell id="lTKTrnrhQplXegWLgwpe-37" value="20.000" style="ellipse;whiteSpace=wrap;html=1;" vertex="1" parent="1">
          <mxGeometry x="230" y="380" width="70" height="30" as="geometry" />
        </mxCell>
        <mxCell id="lTKTrnrhQplXegWLgwpe-38" value="108" style="ellipse;whiteSpace=wrap;html=1;" vertex="1" parent="1">
          <mxGeometry x="230" y="270" width="70" height="30" as="geometry" />
        </mxCell>
        <mxCell id="lTKTrnrhQplXegWLgwpe-39" value="" style="endArrow=none;html=1;rounded=0;" edge="1" parent="1">
          <mxGeometry width="50" height="50" relative="1" as="geometry">
            <mxPoint x="255" y="294.5" as="sourcePoint" />
            <mxPoint x="275" y="294.5" as="targetPoint" />
            <Array as="points">
              <mxPoint x="265" y="294.5" />
            </Array>
          </mxGeometry>
        </mxCell>
        <mxCell id="lTKTrnrhQplXegWLgwpe-40" value="ÇALIŞAN" style="rounded=0;whiteSpace=wrap;html=1;" vertex="1" parent="1">
          <mxGeometry x="320" y="320" width="90" height="30" as="geometry" />
        </mxCell>
        <mxCell id="lTKTrnrhQplXegWLgwpe-41" value="" style="endArrow=none;html=1;rounded=0;" edge="1" parent="1">
          <mxGeometry width="50" height="50" relative="1" as="geometry">
            <mxPoint x="370" y="320" as="sourcePoint" />
            <mxPoint x="420" y="270" as="targetPoint" />
            <Array as="points">
              <mxPoint x="390" y="300" />
            </Array>
          </mxGeometry>
        </mxCell>
        <mxCell id="lTKTrnrhQplXegWLgwpe-42" value="&lt;span style=&quot;color: rgba(0, 0, 0, 0); font-family: monospace; font-size: 0px; text-align: start; background-color: rgb(251, 251, 251);&quot;&gt;%3CmxGraphModel%3E%3Croot%3E%3CmxCell%20id%3D%220%22%2F%3E%3CmxCell%20id%3D%221%22%20parent%3D%220%22%2F%3E%3CmxCell%20id%3D%222%22%20value%3D%22%22%20style%3D%22endArrow%3Dnone%3Bhtml%3D1%3Brounded%3D0%3B%22%20edge%3D%221%22%20parent%3D%221%22%3E%3CmxGeometry%20width%3D%2250%22%20height%3D%2250%22%20relative%3D%221%22%20as%3D%22geometry%22%3E%3CmxPoint%20x%3D%22310%22%20y%3D%22390%22%20as%3D%22sourcePoint%22%2F%3E%3CmxPoint%20x%3D%22360%22%20y%3D%22340%22%20as%3D%22targetPoint%22%2F%3E%3CArray%20as%3D%22points%22%3E%3CmxPoint%20x%3D%22330%22%20y%3D%22370%22%2F%3E%3C%2FArray%3E%3C%2FmxGeometry%3E%3C%2FmxCell%3E%3C%2Froot%3E%3C%2FmxGraphModel%3E&lt;/span&gt;" style="endArrow=none;html=1;rounded=0;" edge="1" parent="1">
          <mxGeometry width="50" height="50" relative="1" as="geometry">
            <mxPoint x="410" y="340" as="sourcePoint" />
            <mxPoint x="460" y="290" as="targetPoint" />
            <Array as="points">
              <mxPoint x="430" y="320" />
            </Array>
          </mxGeometry>
        </mxCell>
        <mxCell id="lTKTrnrhQplXegWLgwpe-43" value="" style="endArrow=none;html=1;rounded=0;" edge="1" parent="1">
          <mxGeometry width="50" height="50" relative="1" as="geometry">
            <mxPoint x="280" y="440" as="sourcePoint" />
            <mxPoint x="350" y="350" as="targetPoint" />
            <Array as="points" />
          </mxGeometry>
        </mxCell>
        <mxCell id="lTKTrnrhQplXegWLgwpe-44" value="" style="endArrow=none;html=1;rounded=0;" edge="1" parent="1">
          <mxGeometry width="50" height="50" relative="1" as="geometry">
            <mxPoint x="340" y="410" as="sourcePoint" />
            <mxPoint x="370" y="350" as="targetPoint" />
            <Array as="points">
              <mxPoint x="350" y="390" />
            </Array>
          </mxGeometry>
        </mxCell>
        <mxCell id="lTKTrnrhQplXegWLgwpe-45" value="" style="endArrow=none;html=1;rounded=0;" edge="1" parent="1">
          <mxGeometry width="50" height="50" relative="1" as="geometry">
            <mxPoint x="400" y="450" as="sourcePoint" />
            <mxPoint x="380" y="350" as="targetPoint" />
            <Array as="points" />
          </mxGeometry>
        </mxCell>
        <mxCell id="lTKTrnrhQplXegWLgwpe-46" value="" style="endArrow=none;html=1;rounded=0;entryX=0.876;entryY=1.04;entryDx=0;entryDy=0;entryPerimeter=0;" edge="1" parent="1" target="lTKTrnrhQplXegWLgwpe-40">
          <mxGeometry width="50" height="50" relative="1" as="geometry">
            <mxPoint x="430" y="410" as="sourcePoint" />
            <mxPoint x="490" y="420" as="targetPoint" />
            <Array as="points" />
          </mxGeometry>
        </mxCell>
        <mxCell id="lTKTrnrhQplXegWLgwpe-47" value="" style="endArrow=none;html=1;rounded=0;exitX=1;exitY=1;exitDx=0;exitDy=0;" edge="1" parent="1" source="lTKTrnrhQplXegWLgwpe-40">
          <mxGeometry width="50" height="50" relative="1" as="geometry">
            <mxPoint x="430" y="390" as="sourcePoint" />
            <mxPoint x="480" y="380" as="targetPoint" />
            <Array as="points">
              <mxPoint x="450" y="370" />
            </Array>
          </mxGeometry>
        </mxCell>
        <mxCell id="lTKTrnrhQplXegWLgwpe-49" value="HASAN" style="ellipse;whiteSpace=wrap;html=1;" vertex="1" parent="1">
          <mxGeometry x="220" y="440" width="80" height="30" as="geometry" />
        </mxCell>
        <mxCell id="lTKTrnrhQplXegWLgwpe-50" value="YILDIRIM" style="ellipse;whiteSpace=wrap;html=1;" vertex="1" parent="1">
          <mxGeometry x="310" y="400" width="80" height="30" as="geometry" />
        </mxCell>
        <mxCell id="lTKTrnrhQplXegWLgwpe-51" value="10.000" style="ellipse;whiteSpace=wrap;html=1;" vertex="1" parent="1">
          <mxGeometry x="390" y="440" width="80" height="30" as="geometry" />
        </mxCell>
        <mxCell id="lTKTrnrhQplXegWLgwpe-52" value="107" style="ellipse;whiteSpace=wrap;html=1;" vertex="1" parent="1">
          <mxGeometry x="420" y="390" width="80" height="30" as="geometry" />
        </mxCell>
        <mxCell id="lTKTrnrhQplXegWLgwpe-53" value="CENGİZ TOPEL" style="ellipse;whiteSpace=wrap;html=1;" vertex="1" parent="1">
          <mxGeometry x="460" y="360" width="80" height="30" as="geometry" />
        </mxCell>
        <mxCell id="lTKTrnrhQplXegWLgwpe-54" value="Müdür yrd." style="ellipse;whiteSpace=wrap;html=1;" vertex="1" parent="1">
          <mxGeometry x="440" y="270" width="80" height="30" as="geometry" />
        </mxCell>
        <mxCell id="lTKTrnrhQplXegWLgwpe-55" value="0552.." style="ellipse;whiteSpace=wrap;html=1;" vertex="1" parent="1">
          <mxGeometry x="380" y="240" width="80" height="30" as="geometry" />
        </mxCell>
        <mxCell id="lTKTrnrhQplXegWLgwpe-56" value="" style="endArrow=none;html=1;rounded=0;" edge="1" parent="1">
          <mxGeometry width="50" height="50" relative="1" as="geometry">
            <mxPoint x="450" y="410" as="sourcePoint" />
            <mxPoint x="470" y="410" as="targetPoint" />
            <Array as="points">
              <mxPoint x="460" y="410" />
            </Array>
          </mxGeometry>
        </mxCell>
        <mxCell id="lTKTrnrhQplXegWLgwpe-57" value="" style="endArrow=none;html=1;rounded=0;" edge="1" parent="1">
          <mxGeometry width="50" height="50" relative="1" as="geometry">
            <mxPoint x="600" y="130" as="sourcePoint" />
            <mxPoint x="650" y="80" as="targetPoint" />
          </mxGeometry>
        </mxCell>
        <mxCell id="lTKTrnrhQplXegWLgwpe-58" value="" style="endArrow=none;html=1;rounded=0;" edge="1" parent="1">
          <mxGeometry width="50" height="50" relative="1" as="geometry">
            <mxPoint x="640" y="150" as="sourcePoint" />
            <mxPoint x="710" y="110" as="targetPoint" />
          </mxGeometry>
        </mxCell>
        <mxCell id="lTKTrnrhQplXegWLgwpe-59" value="" style="endArrow=none;html=1;rounded=0;" edge="1" parent="1" source="lTKTrnrhQplXegWLgwpe-5">
          <mxGeometry width="50" height="50" relative="1" as="geometry">
            <mxPoint x="660" y="190" as="sourcePoint" />
            <mxPoint x="710" y="170" as="targetPoint" />
          </mxGeometry>
        </mxCell>
        <mxCell id="lTKTrnrhQplXegWLgwpe-61" value="120" style="ellipse;whiteSpace=wrap;html=1;" vertex="1" parent="1">
          <mxGeometry x="620" y="50" width="80" height="30" as="geometry" />
        </mxCell>
        <mxCell id="lTKTrnrhQplXegWLgwpe-62" value="AUDİ" style="ellipse;whiteSpace=wrap;html=1;" vertex="1" parent="1">
          <mxGeometry x="690" y="90" width="80" height="30" as="geometry" />
        </mxCell>
        <mxCell id="lTKTrnrhQplXegWLgwpe-63" value="BATTALGAZİ" style="ellipse;whiteSpace=wrap;html=1;" vertex="1" parent="1">
          <mxGeometry x="690" y="160" width="80" height="30" as="geometry" />
        </mxCell>
        <mxCell id="lTKTrnrhQplXegWLgwpe-64" value="" style="endArrow=none;html=1;rounded=0;" edge="1" parent="1">
          <mxGeometry width="50" height="50" relative="1" as="geometry">
            <mxPoint x="650" y="70" as="sourcePoint" />
            <mxPoint x="670" y="70" as="targetPoint" />
            <Array as="points" />
          </mxGeometry>
        </mxCell>
        <mxCell id="lTKTrnrhQplXegWLgwpe-68" value="" style="endArrow=none;html=1;rounded=0;entryX=1;entryY=1;entryDx=0;entryDy=0;" edge="1" parent="1" source="lTKTrnrhQplXegWLgwpe-72" target="lTKTrnrhQplXegWLgwpe-5">
          <mxGeometry width="50" height="50" relative="1" as="geometry">
            <mxPoint x="790" y="300" as="sourcePoint" />
            <mxPoint x="620" y="180" as="targetPoint" />
          </mxGeometry>
        </mxCell>
        <mxCell id="lTKTrnrhQplXegWLgwpe-69" value="" style="endArrow=none;html=1;rounded=0;" edge="1" parent="1">
          <mxGeometry width="50" height="50" relative="1" as="geometry">
            <mxPoint x="620" y="440" as="sourcePoint" />
            <mxPoint x="590" y="180" as="targetPoint" />
          </mxGeometry>
        </mxCell>
        <mxCell id="lTKTrnrhQplXegWLgwpe-70" value="ÇALIŞIR" style="rhombus;whiteSpace=wrap;html=1;" vertex="1" parent="1">
          <mxGeometry x="560" y="250" width="80" height="80" as="geometry" />
        </mxCell>
        <mxCell id="lTKTrnrhQplXegWLgwpe-71" value="" style="endArrow=none;html=1;rounded=0;entryX=1;entryY=1;entryDx=0;entryDy=0;" edge="1" parent="1" target="lTKTrnrhQplXegWLgwpe-72">
          <mxGeometry width="50" height="50" relative="1" as="geometry">
            <mxPoint x="790" y="300" as="sourcePoint" />
            <mxPoint x="625" y="173" as="targetPoint" />
          </mxGeometry>
        </mxCell>
        <mxCell id="lTKTrnrhQplXegWLgwpe-72" value="ÇALIŞIR" style="rhombus;whiteSpace=wrap;html=1;" vertex="1" parent="1">
          <mxGeometry x="650" y="185" width="80" height="80" as="geometry" />
        </mxCell>
        <mxCell id="lTKTrnrhQplXegWLgwpe-73" value="ÇALIŞAN" style="rounded=0;whiteSpace=wrap;html=1;" vertex="1" parent="1">
          <mxGeometry x="560" y="430" width="100" height="30" as="geometry" />
        </mxCell>
        <mxCell id="lTKTrnrhQplXegWLgwpe-74" value="ÇALIŞAN" style="rounded=0;whiteSpace=wrap;html=1;" vertex="1" parent="1">
          <mxGeometry x="770" y="300" width="100" height="30" as="geometry" />
        </mxCell>
        <mxCell id="lTKTrnrhQplXegWLgwpe-76" value="PERSONEL" style="ellipse;whiteSpace=wrap;html=1;" vertex="1" parent="1">
          <mxGeometry x="730" y="410" width="80" height="30" as="geometry" />
        </mxCell>
        <mxCell id="lTKTrnrhQplXegWLgwpe-77" value="BOSTANBAŞI" style="ellipse;whiteSpace=wrap;html=1;" vertex="1" parent="1">
          <mxGeometry x="710" y="500" width="80" height="30" as="geometry" />
        </mxCell>
        <mxCell id="lTKTrnrhQplXegWLgwpe-78" value="0532.." style="ellipse;whiteSpace=wrap;html=1;" vertex="1" parent="1">
          <mxGeometry x="630" y="520" width="80" height="30" as="geometry" />
        </mxCell>
        <mxCell id="lTKTrnrhQplXegWLgwpe-79" value="7500" style="ellipse;whiteSpace=wrap;html=1;" vertex="1" parent="1">
          <mxGeometry x="540" y="550" width="80" height="30" as="geometry" />
        </mxCell>
        <mxCell id="lTKTrnrhQplXegWLgwpe-80" value="YILDIZ" style="ellipse;whiteSpace=wrap;html=1;" vertex="1" parent="1">
          <mxGeometry x="480" y="510" width="80" height="30" as="geometry" />
        </mxCell>
        <mxCell id="lTKTrnrhQplXegWLgwpe-81" value="AHMET" style="ellipse;whiteSpace=wrap;html=1;" vertex="1" parent="1">
          <mxGeometry x="440" y="480" width="80" height="30" as="geometry" />
        </mxCell>
        <mxCell id="lTKTrnrhQplXegWLgwpe-82" value="" style="endArrow=none;html=1;rounded=0;" edge="1" parent="1">
          <mxGeometry width="50" height="50" relative="1" as="geometry">
            <mxPoint x="510" y="490" as="sourcePoint" />
            <mxPoint x="560" y="440" as="targetPoint" />
          </mxGeometry>
        </mxCell>
        <mxCell id="lTKTrnrhQplXegWLgwpe-83" value="" style="endArrow=none;html=1;rounded=0;" edge="1" parent="1">
          <mxGeometry width="50" height="50" relative="1" as="geometry">
            <mxPoint x="540" y="510" as="sourcePoint" />
            <mxPoint x="590" y="460" as="targetPoint" />
          </mxGeometry>
        </mxCell>
        <mxCell id="lTKTrnrhQplXegWLgwpe-84" value="" style="endArrow=none;html=1;rounded=0;" edge="1" parent="1">
          <mxGeometry width="50" height="50" relative="1" as="geometry">
            <mxPoint x="580" y="550" as="sourcePoint" />
            <mxPoint x="620" y="460" as="targetPoint" />
          </mxGeometry>
        </mxCell>
        <mxCell id="lTKTrnrhQplXegWLgwpe-85" value="" style="endArrow=none;html=1;rounded=0;" edge="1" parent="1">
          <mxGeometry width="50" height="50" relative="1" as="geometry">
            <mxPoint x="640" y="460" as="sourcePoint" />
            <mxPoint x="670" y="520" as="targetPoint" />
            <Array as="points">
              <mxPoint x="640" y="460" />
            </Array>
          </mxGeometry>
        </mxCell>
        <mxCell id="lTKTrnrhQplXegWLgwpe-86" value="" style="endArrow=none;html=1;rounded=0;exitX=1;exitY=1;exitDx=0;exitDy=0;" edge="1" parent="1" source="lTKTrnrhQplXegWLgwpe-73">
          <mxGeometry width="50" height="50" relative="1" as="geometry">
            <mxPoint x="800" y="520" as="sourcePoint" />
            <mxPoint x="720" y="510" as="targetPoint" />
          </mxGeometry>
        </mxCell>
        <mxCell id="lTKTrnrhQplXegWLgwpe-87" value="" style="endArrow=none;html=1;rounded=0;" edge="1" parent="1">
          <mxGeometry width="50" height="50" relative="1" as="geometry">
            <mxPoint x="660" y="440" as="sourcePoint" />
            <mxPoint x="730" y="430" as="targetPoint" />
          </mxGeometry>
        </mxCell>
        <mxCell id="lTKTrnrhQplXegWLgwpe-88" value="" style="endArrow=none;html=1;rounded=0;" edge="1" parent="1">
          <mxGeometry width="50" height="50" relative="1" as="geometry">
            <mxPoint x="640" y="430" as="sourcePoint" />
            <mxPoint x="690" y="380" as="targetPoint" />
          </mxGeometry>
        </mxCell>
        <mxCell id="lTKTrnrhQplXegWLgwpe-91" value="106" style="ellipse;whiteSpace=wrap;html=1;" vertex="1" parent="1">
          <mxGeometry x="660" y="350" width="80" height="30" as="geometry" />
        </mxCell>
        <mxCell id="lTKTrnrhQplXegWLgwpe-92" value="" style="endArrow=none;html=1;rounded=0;" edge="1" parent="1">
          <mxGeometry width="50" height="50" relative="1" as="geometry">
            <mxPoint x="690" y="374.40999999999997" as="sourcePoint" />
            <mxPoint x="710" y="374.40999999999997" as="targetPoint" />
            <Array as="points">
              <mxPoint x="700" y="374.40999999999997" />
            </Array>
          </mxGeometry>
        </mxCell>
        <mxCell id="lTKTrnrhQplXegWLgwpe-93" value="" style="endArrow=none;html=1;rounded=0;" edge="1" parent="1">
          <mxGeometry width="50" height="50" relative="1" as="geometry">
            <mxPoint x="810" y="300" as="sourcePoint" />
            <mxPoint x="860" y="250" as="targetPoint" />
          </mxGeometry>
        </mxCell>
        <mxCell id="lTKTrnrhQplXegWLgwpe-94" value="" style="endArrow=none;html=1;rounded=0;" edge="1" parent="1">
          <mxGeometry width="50" height="50" relative="1" as="geometry">
            <mxPoint x="860" y="300" as="sourcePoint" />
            <mxPoint x="910" y="250" as="targetPoint" />
          </mxGeometry>
        </mxCell>
        <mxCell id="lTKTrnrhQplXegWLgwpe-95" value="" style="endArrow=none;html=1;rounded=0;" edge="1" parent="1">
          <mxGeometry width="50" height="50" relative="1" as="geometry">
            <mxPoint x="870" y="310" as="sourcePoint" />
            <mxPoint x="940" y="310" as="targetPoint" />
          </mxGeometry>
        </mxCell>
        <mxCell id="lTKTrnrhQplXegWLgwpe-96" value="" style="endArrow=none;html=1;rounded=0;" edge="1" parent="1">
          <mxGeometry width="50" height="50" relative="1" as="geometry">
            <mxPoint x="870" y="330" as="sourcePoint" />
            <mxPoint x="950" y="330" as="targetPoint" />
            <Array as="points">
              <mxPoint x="900" y="330" />
            </Array>
          </mxGeometry>
        </mxCell>
        <mxCell id="lTKTrnrhQplXegWLgwpe-97" value="" style="endArrow=none;html=1;rounded=0;exitX=0.901;exitY=1.155;exitDx=0;exitDy=0;exitPerimeter=0;" edge="1" parent="1" source="lTKTrnrhQplXegWLgwpe-74">
          <mxGeometry width="50" height="50" relative="1" as="geometry">
            <mxPoint x="930" y="450" as="sourcePoint" />
            <mxPoint x="970" y="390" as="targetPoint" />
            <Array as="points">
              <mxPoint x="890" y="350" />
            </Array>
          </mxGeometry>
        </mxCell>
        <mxCell id="lTKTrnrhQplXegWLgwpe-98" value="" style="endArrow=none;html=1;rounded=0;exitX=0.901;exitY=1.155;exitDx=0;exitDy=0;exitPerimeter=0;" edge="1" parent="1">
          <mxGeometry width="50" height="50" relative="1" as="geometry">
            <mxPoint x="820" y="330" as="sourcePoint" />
            <mxPoint x="960" y="450" as="targetPoint" />
          </mxGeometry>
        </mxCell>
        <mxCell id="lTKTrnrhQplXegWLgwpe-99" value="" style="endArrow=none;html=1;rounded=0;exitX=0.901;exitY=1.155;exitDx=0;exitDy=0;exitPerimeter=0;" edge="1" parent="1">
          <mxGeometry width="50" height="50" relative="1" as="geometry">
            <mxPoint x="770" y="330" as="sourcePoint" />
            <mxPoint x="890" y="430" as="targetPoint" />
            <Array as="points">
              <mxPoint x="780" y="335" />
            </Array>
          </mxGeometry>
        </mxCell>
        <mxCell id="lTKTrnrhQplXegWLgwpe-100" value="YÖNETİCİ" style="ellipse;whiteSpace=wrap;html=1;" vertex="1" parent="1">
          <mxGeometry x="840" y="430" width="80" height="30" as="geometry" />
        </mxCell>
        <mxCell id="lTKTrnrhQplXegWLgwpe-101" value="YAZIHAN" style="ellipse;whiteSpace=wrap;html=1;" vertex="1" parent="1">
          <mxGeometry x="950" y="440" width="80" height="30" as="geometry" />
        </mxCell>
        <mxCell id="lTKTrnrhQplXegWLgwpe-102" value="0536.." style="ellipse;whiteSpace=wrap;html=1;" vertex="1" parent="1">
          <mxGeometry x="960" y="380" width="80" height="30" as="geometry" />
        </mxCell>
        <mxCell id="lTKTrnrhQplXegWLgwpe-103" value="5000" style="ellipse;whiteSpace=wrap;html=1;" vertex="1" parent="1">
          <mxGeometry x="940" y="320" width="80" height="30" as="geometry" />
        </mxCell>
        <mxCell id="lTKTrnrhQplXegWLgwpe-104" value="COŞKUN" style="ellipse;whiteSpace=wrap;html=1;" vertex="1" parent="1">
          <mxGeometry x="920" y="290" width="80" height="30" as="geometry" />
        </mxCell>
        <mxCell id="lTKTrnrhQplXegWLgwpe-105" value="MURAT" style="ellipse;whiteSpace=wrap;html=1;" vertex="1" parent="1">
          <mxGeometry x="900" y="230" width="80" height="30" as="geometry" />
        </mxCell>
        <mxCell id="lTKTrnrhQplXegWLgwpe-106" value="105" style="ellipse;whiteSpace=wrap;html=1;" vertex="1" parent="1">
          <mxGeometry x="810" y="220" width="80" height="30" as="geometry" />
        </mxCell>
        <mxCell id="lTKTrnrhQplXegWLgwpe-107" value="" style="endArrow=none;html=1;rounded=0;" edge="1" parent="1">
          <mxGeometry width="50" height="50" relative="1" as="geometry">
            <mxPoint x="840" y="239.99999999999997" as="sourcePoint" />
            <mxPoint x="860" y="239.99999999999997" as="targetPoint" />
            <Array as="points">
              <mxPoint x="850" y="239.99999999999997" />
            </Array>
          </mxGeometry>
        </mxCell>
      </root>
    </mxGraphModel>
  </diagram>
</mxfile>
